# This file uses centimeters as units for non-parametric coordinates.

mtllib Single Tile.mtl
g default
v -0.500000 -0.415508 0.415508
v -0.475253 -0.475253 0.415508
v -0.415508 -0.500000 0.415508
v -0.415508 -0.475253 0.475253
v -0.415508 -0.415508 0.500000
v -0.475253 -0.415508 0.475253
v 0.415508 -0.500000 0.415508
v 0.475253 -0.475253 0.415508
v 0.500000 -0.415508 0.415508
v 0.475253 -0.415508 0.475253
v 0.415508 -0.415508 0.500000
v 0.415508 -0.475253 0.475253
v -0.415508 0.500000 0.415508
v -0.475253 0.475253 0.415508
v -0.500000 0.415508 0.415508
v -0.475253 0.415508 0.475253
v -0.415508 0.415508 0.500000
v -0.415508 0.475253 0.475253
v 0.500000 0.415508 0.415508
v 0.475253 0.475253 0.415508
v 0.415508 0.500000 0.415508
v 0.415508 0.475253 0.475253
v 0.415508 0.415508 0.500000
v 0.475253 0.415508 0.475253
v -0.415508 0.415508 -0.500000
v -0.475253 0.415508 -0.475253
v -0.500000 0.415508 -0.415508
v -0.475253 0.475253 -0.415508
v -0.415508 0.500000 -0.415508
v -0.415508 0.475253 -0.475253
v 0.500000 0.415508 -0.415508
v 0.475253 0.415508 -0.475253
v 0.415508 0.415508 -0.500000
v 0.415508 0.475253 -0.475253
v 0.415508 0.500000 -0.415508
v 0.475253 0.475253 -0.415508
v -0.415508 -0.500000 -0.415508
v -0.475253 -0.475253 -0.415508
v -0.500000 -0.415508 -0.415508
v -0.475253 -0.415508 -0.475253
v -0.415508 -0.415508 -0.500000
v -0.415508 -0.475253 -0.475253
v 0.500000 -0.415508 -0.415508
v 0.475253 -0.475253 -0.415508
v 0.415508 -0.500000 -0.415508
v 0.415508 -0.475253 -0.475253
v 0.415508 -0.415508 -0.500000
v 0.475253 -0.415508 -0.475253
v -0.463587 -0.463587 0.463587
v 0.463587 -0.463587 0.463587
v -0.463587 0.463587 0.463587
v 0.463587 0.463587 0.463587
v -0.463587 0.463587 -0.463587
v 0.463587 0.463587 -0.463587
v -0.463587 -0.463587 -0.463587
v 0.463587 -0.463587 -0.463587
vt 0.375000 0.980445
vt 0.144555 0.000000
vt 0.394555 0.000000
vt 0.605445 1.000000
vt 0.353877 0.021123
vt 0.644555 0.000000
vt 0.625000 0.769555
vt 0.603877 0.021123
vt 0.353877 0.228877
vt 0.355445 0.250000
vt 0.375000 0.480445
vt 0.396123 0.271123
vt 0.603877 0.228877
vt 0.603877 0.271123
vt 0.625000 0.269555
vt 0.855445 0.250000
vt 0.146123 0.228877
vt 0.125000 0.230445
vt 0.375000 0.730445
vt 0.396123 0.521123
vt 0.603877 0.478877
vt 0.603877 0.521123
vt 0.625000 0.519555
vt 0.853877 0.021123
vt 0.875000 0.019555
vt 0.396123 0.771123
vt 0.603877 0.728877
vt 0.355445 0.000000
vt 0.396123 0.978877
vt 0.394555 1.000000
vt 0.375000 1.000000
vt 0.396123 0.021123
vt 0.375000 0.019555
vt 0.375000 0.000000
vt 0.603877 0.978877
vt 0.625000 0.980445
vt 0.625000 1.000000
vt 0.646123 0.021123
vt 0.625000 0.019555
vt 0.605445 0.000000
vt 0.625000 0.000000
vt 0.375000 0.269555
vt 0.375000 0.230445
vt 0.396123 0.228877
vt 0.394555 0.250000
vt 0.375000 0.250000
vt 0.646123 0.228877
vt 0.644555 0.250000
vt 0.605445 0.250000
vt 0.625000 0.230445
vt 0.625000 0.250000
vt 0.375000 0.519555
vt 0.144555 0.250000
vt 0.125000 0.250000
vt 0.396123 0.478877
vt 0.394555 0.500000
vt 0.375000 0.500000
vt 0.853877 0.228877
vt 0.875000 0.230445
vt 0.875000 0.250000
vt 0.605445 0.500000
vt 0.625000 0.480445
vt 0.625000 0.500000
vt 0.375000 0.769555
vt 0.146123 0.021123
vt 0.125000 0.019555
vt 0.125000 0.000000
vt 0.396123 0.728877
vt 0.394555 0.750000
vt 0.375000 0.750000
vt 0.855445 0.000000
vt 0.875000 0.000000
vt 0.603877 0.771123
vt 0.605445 0.750000
vt 0.625000 0.730445
vt 0.625000 0.750000
vn -0.027174 -0.999261 -0.027174
vn 0.027174 -0.999261 -0.027174
vn 0.027174 -0.999261 0.027174
vn -0.027174 -0.999261 0.027174
vn 0.027174 -0.027174 0.999261
vn 0.027174 0.027174 0.999261
vn -0.027174 0.027174 0.999261
vn -0.027174 -0.027174 0.999261
vn -0.999261 0.027174 0.027174
vn -0.999261 0.027174 -0.027174
vn -0.999261 -0.027174 -0.027174
vn -0.999261 -0.027174 0.027174
vn 0.999261 -0.027174 -0.027174
vn 0.999261 0.027174 -0.027174
vn 0.999261 0.027174 0.027174
vn 0.999261 -0.027174 0.027174
vn 0.027174 0.999261 0.027174
vn 0.027174 0.999261 -0.027174
vn -0.027174 0.999261 -0.027174
vn -0.027174 0.999261 0.027174
vn 0.027174 0.027174 -0.999261
vn 0.027174 -0.027174 -0.999261
vn -0.027174 -0.027174 -0.999261
vn -0.027174 0.027174 -0.999261
vn -0.381205 -0.924321 0.017702
vn -0.381205 -0.924321 -0.017702
vn -0.924321 -0.381205 0.017702
vn -0.924321 -0.381205 -0.017702
vn -0.017702 -0.381205 0.924321
vn 0.017702 -0.381205 0.924321
vn -0.017702 -0.924321 0.381205
vn 0.017702 -0.924321 0.381205
vn -0.924321 -0.017702 0.381205
vn -0.924321 0.017702 0.381205
vn -0.381205 -0.017702 0.924321
vn -0.381205 0.017702 0.924321
vn 0.924321 -0.381205 0.017702
vn 0.924321 -0.381205 -0.017702
vn 0.381205 -0.924321 0.017702
vn 0.381205 -0.924321 -0.017702
vn 0.381205 -0.017702 0.924321
vn 0.381205 0.017702 0.924321
vn 0.924321 -0.017702 0.381205
vn 0.924321 0.017702 0.381205
vn -0.924321 0.381205 0.017702
vn -0.924321 0.381205 -0.017702
vn -0.381205 0.924321 0.017702
vn -0.381205 0.924321 -0.017702
vn -0.017702 0.924321 0.381205
vn 0.017702 0.924321 0.381205
vn -0.017702 0.381205 0.924321
vn 0.017702 0.381205 0.924321
vn 0.381205 0.924321 0.017702
vn 0.381205 0.924321 -0.017702
vn 0.924321 0.381205 0.017702
vn 0.924321 0.381205 -0.017702
vn -0.924321 0.017702 -0.381205
vn -0.924321 -0.017702 -0.381205
vn -0.381205 0.017702 -0.924321
vn -0.381205 -0.017702 -0.924321
vn -0.017702 0.381205 -0.924321
vn 0.017702 0.381205 -0.924321
vn -0.017702 0.924321 -0.381205
vn 0.017702 0.924321 -0.381205
vn 0.381205 0.017702 -0.924321
vn 0.381205 -0.017702 -0.924321
vn 0.924321 0.017702 -0.381205
vn 0.924321 -0.017702 -0.381205
vn -0.017702 -0.924321 -0.381205
vn 0.017702 -0.924321 -0.381205
vn -0.017702 -0.381205 -0.924321
vn 0.017702 -0.381205 -0.924321
vn -0.881546 -0.333823 0.333824
vn -0.333824 -0.881546 0.333823
vn -0.333823 -0.333824 0.881546
vn 0.333824 -0.881546 0.333823
vn 0.881546 -0.333823 0.333824
vn 0.333823 -0.333824 0.881546
vn -0.333824 0.881546 0.333823
vn -0.881546 0.333823 0.333824
vn -0.333823 0.333824 0.881546
vn 0.881546 0.333823 0.333824
vn 0.333824 0.881546 0.333823
vn 0.333823 0.333824 0.881546
vn -0.333823 0.333824 -0.881546
vn -0.881546 0.333823 -0.333824
vn -0.333824 0.881546 -0.333823
vn 0.881546 0.333823 -0.333824
vn 0.333823 0.333824 -0.881546
vn 0.333824 0.881546 -0.333823
vn -0.333824 -0.881546 -0.333823
vn -0.881546 -0.333823 -0.333824
vn -0.333823 -0.333824 -0.881546
vn 0.881546 -0.333823 -0.333824
vn 0.333824 -0.881546 -0.333823
vn 0.333823 -0.333824 -0.881546
s 1
g pCube133
usemtl initialShadingGroup
f 37/26/1 45/73/2 7/35/3 3/29/4
s 2
f 11/8/5 23/13/6 17/44/7 5/32/8
s 3
f 15/9/9 27/17/10 39/65/11 1/5/12
s 4
f 43/24/13 31/58/14 19/47/15 9/38/16
s 5
f 21/14/17 35/21/18 29/55/19 13/12/20
s 6
f 33/22/21 47/27/22 41/68/23 25/20/24
s 1
f 3/29/4 2/1/25 38/64/26 37/26/1
s 3
f 2/28/27 1/5/12 39/65/11 38/2/28
s 2
f 5/32/8 4/3/29 12/40/30 11/8/5
s 1
f 4/30/31 3/29/4 7/35/3 12/4/32
s 3
f 1/5/12 6/33/33 16/43/34 15/9/9
s 2
f 6/33/35 5/32/8 17/44/7 16/43/36
s 4
f 9/38/16 8/6/37 44/71/38 43/24/13
s 1
f 8/36/39 7/35/3 45/73/2 44/7/40
s 2
f 11/8/5 10/39/41 24/50/42 23/13/6
s 4
f 10/39/43 9/38/16 19/47/15 24/50/44
s 3
f 15/9/9 14/10/45 28/53/46 27/17/10
s 5
f 14/42/47 13/12/20 29/55/19 28/11/48
f 13/12/20 18/45/49 22/49/50 21/14/17
s 2
f 18/45/51 17/44/7 23/13/6 22/49/52
s 5
f 21/14/17 20/15/53 36/62/54 35/21/18
s 4
f 20/48/55 19/47/15 31/58/14 36/16/56
s 3
f 27/17/10 26/18/57 40/66/58 39/65/11
s 6
f 26/52/59 25/20/24 41/68/23 40/19/60
f 25/20/24 30/56/61 34/61/62 33/22/21
s 5
f 30/56/63 29/55/19 35/21/18 34/61/64
s 6
f 33/22/21 32/23/65 48/75/66 47/27/22
s 4
f 32/59/67 31/58/14 43/24/13 48/25/68
s 1
f 37/26/1 42/69/69 46/74/70 45/73/2
s 6
f 42/69/71 41/68/23 47/27/22 46/74/72
s 3
f 6/33/33 1/5/12 2/28/27 49/34/73
s 1
f 2/1/25 3/29/4 4/30/31 49/31/74
s 2
f 4/3/29 5/32/8 6/33/35 49/34/75
s 1
f 12/4/32 7/35/3 8/36/39 50/37/76
s 4
f 8/6/37 9/38/16 10/39/43 50/41/77
s 2
f 10/39/41 11/8/5 12/40/30 50/41/78
s 5
f 18/45/49 13/12/20 14/42/47 51/46/79
s 3
f 14/10/45 15/9/9 16/43/34 51/46/80
s 2
f 16/43/36 17/44/7 18/45/51 51/46/81
s 4
f 24/50/44 19/47/15 20/48/55 52/51/82
s 5
f 20/15/53 21/14/17 22/49/50 52/51/83
s 2
f 22/49/52 23/13/6 24/50/42 52/51/84
s 6
f 30/56/61 25/20/24 26/52/59 53/57/85
s 3
f 26/18/57 27/17/10 28/53/46 53/54/86
s 5
f 28/11/48 29/55/19 30/56/63 53/57/87
s 4
f 36/16/56 31/58/14 32/59/67 54/60/88
s 6
f 32/23/65 33/22/21 34/61/62 54/63/89
s 5
f 34/61/64 35/21/18 36/62/54 54/63/90
s 1
f 42/69/69 37/26/1 38/64/26 55/70/91
s 3
f 38/2/28 39/65/11 40/66/58 55/67/92
s 6
f 40/19/60 41/68/23 42/69/71 55/70/93
s 4
f 48/25/68 43/24/13 44/71/38 56/72/94
s 1
f 44/7/40 45/73/2 46/74/70 56/76/95
s 6
f 46/74/72 47/27/22 48/75/66 56/76/96
