# This file uses centimeters as units for non-parametric coordinates.

mtllib Single Tile.mtl
g default
v -0.500000 -0.448305 0.448305
v -0.493074 -0.474153 0.448305
v -0.474153 -0.493074 0.448305
v -0.448305 -0.500000 0.448305
v -0.448305 -0.493074 0.474153
v -0.448305 -0.474153 0.493074
v -0.448305 -0.448305 0.500000
v -0.474153 -0.448305 0.493074
v -0.493074 -0.448305 0.474153
v 0.448305 -0.500000 0.448305
v 0.474153 -0.493074 0.448305
v 0.493074 -0.474153 0.448305
v 0.500000 -0.448305 0.448305
v 0.493074 -0.448305 0.474153
v 0.474153 -0.448305 0.493074
v 0.448305 -0.448305 0.500000
v 0.448305 -0.474153 0.493074
v 0.448305 -0.493074 0.474153
v -0.448305 0.500000 0.448305
v -0.474153 0.493074 0.448305
v -0.493074 0.474153 0.448305
v -0.500000 0.448305 0.448305
v -0.493074 0.448305 0.474153
v -0.474153 0.448305 0.493074
v -0.448305 0.448305 0.500000
v -0.448305 0.474153 0.493074
v -0.448305 0.493074 0.474153
v 0.500000 0.448305 0.448305
v 0.493074 0.474153 0.448305
v 0.474153 0.493074 0.448305
v 0.448305 0.500000 0.448305
v 0.448305 0.493074 0.474153
v 0.448305 0.474153 0.493074
v 0.448305 0.448305 0.500000
v 0.474153 0.448305 0.493074
v 0.493074 0.448305 0.474153
v -0.448305 0.448305 -0.500000
v -0.474153 0.448305 -0.493074
v -0.493074 0.448305 -0.474153
v -0.500000 0.448305 -0.448305
v -0.493074 0.474153 -0.448305
v -0.474153 0.493074 -0.448305
v -0.448305 0.500000 -0.448305
v -0.448305 0.493074 -0.474153
v -0.448305 0.474153 -0.493074
v 0.500000 0.448305 -0.448305
v 0.493074 0.448305 -0.474153
v 0.474153 0.448305 -0.493074
v 0.448305 0.448305 -0.500000
v 0.448305 0.474153 -0.493074
v 0.448305 0.493074 -0.474153
v 0.448305 0.500000 -0.448305
v 0.474153 0.493074 -0.448305
v 0.493074 0.474153 -0.448305
v -0.448305 -0.500000 -0.448305
v -0.474153 -0.493074 -0.448305
v -0.493074 -0.474153 -0.448305
v -0.500000 -0.448305 -0.448305
v -0.493074 -0.448305 -0.474153
v -0.474153 -0.448305 -0.493074
v -0.448305 -0.448305 -0.500000
v -0.448305 -0.474153 -0.493074
v -0.448305 -0.493074 -0.474153
v 0.500000 -0.448305 -0.448305
v 0.493074 -0.474153 -0.448305
v 0.474153 -0.493074 -0.448305
v 0.448305 -0.500000 -0.448305
v 0.448305 -0.493074 -0.474153
v 0.448305 -0.474153 -0.493074
v 0.448305 -0.448305 -0.500000
v 0.474153 -0.448305 -0.493074
v 0.493074 -0.448305 -0.474153
v -0.487076 -0.472421 0.472421
v -0.472421 -0.487076 0.472421
v -0.472421 -0.472421 0.487076
v 0.472421 -0.487076 0.472421
v 0.487076 -0.472421 0.472421
v 0.472421 -0.472421 0.487076
v -0.472421 0.487076 0.472421
v -0.487076 0.472421 0.472421
v -0.472421 0.472421 0.487076
v 0.487076 0.472421 0.472421
v 0.472421 0.487076 0.472421
v 0.472421 0.472421 0.487076
v -0.472421 0.472421 -0.487076
v -0.487076 0.472421 -0.472421
v -0.472421 0.487076 -0.472421
v 0.487076 0.472421 -0.472421
v 0.472421 0.472421 -0.487076
v 0.472421 0.487076 -0.472421
v -0.472421 -0.487076 -0.472421
v -0.487076 -0.472421 -0.472421
v -0.472421 -0.472421 -0.487076
v 0.487076 -0.472421 -0.472421
v 0.472421 -0.487076 -0.472421
v 0.472421 -0.472421 -0.487076
vt 0.375000 0.979853
vt 0.137681 0.005473
vt 0.385922 0.000000
vt 0.612319 0.994527
vt 0.362076 0.012924
vt 0.369527 0.012681
vt 0.375000 0.229853
vt 0.637681 0.005473
vt 0.625000 0.770147
vt 0.612076 0.012924
vt 0.625000 0.020147
vt 0.630473 0.237319
vt 0.362076 0.237076
vt 0.362319 0.244527
vt 0.375000 0.479853
vt 0.387924 0.262924
vt 0.387681 0.255473
vt 0.614078 0.250000
vt 0.612076 0.237076
vt 0.612076 0.262924
vt 0.625000 0.270147
vt 0.862319 0.244527
vt 0.137924 0.237076
vt 0.130473 0.237319
vt 0.375000 0.729853
vt 0.387924 0.512924
vt 0.387681 0.505473
vt 0.614078 0.500000
vt 0.612076 0.487076
vt 0.612076 0.512924
vt 0.625000 0.520147
vt 0.862076 0.012924
vt 0.869527 0.012681
vt 0.387924 0.762924
vt 0.387681 0.755473
vt 0.614078 0.750000
vt 0.612076 0.737076
vt 0.362319 0.005473
vt 0.369951 0.005049
vt 0.375000 1.000000
vt 0.380473 0.987319
vt 0.380049 0.994951
vt 0.387924 0.987076
vt 0.387681 0.994527
vt 0.387681 0.005473
vt 0.387924 0.012924
vt 0.380473 0.012681
vt 0.375000 0.010922
vt 0.375000 0.000000
vt 0.375000 0.000000
vt 0.380049 0.005049
vt 0.612076 0.987076
vt 0.619527 0.987319
vt 0.619951 0.994951
vt 0.625000 0.989078
vt 0.625000 1.000000
vt 0.637924 0.012924
vt 0.630473 0.012681
vt 0.630049 0.005049
vt 0.619527 0.012681
vt 0.612319 0.005473
vt 0.604853 0.000000
vt 0.625000 0.000000
vt 0.625000 0.000000
vt 0.619951 0.005049
vt 0.380473 0.262681
vt 0.380049 0.255049
vt 0.375000 0.260922
vt 0.369527 0.237319
vt 0.369951 0.244951
vt 0.380473 0.237319
vt 0.387924 0.237076
vt 0.387681 0.244527
vt 0.395147 0.250000
vt 0.375000 0.250000
vt 0.375000 0.250000
vt 0.380049 0.244951
vt 0.637924 0.237076
vt 0.637681 0.244527
vt 0.630049 0.244951
vt 0.619527 0.262681
vt 0.619951 0.255049
vt 0.612319 0.255473
vt 0.612319 0.244527
vt 0.619527 0.237319
vt 0.625000 0.239078
vt 0.625000 0.250000
vt 0.625000 0.250000
vt 0.619951 0.244951
vt 0.380473 0.512681
vt 0.380049 0.505049
vt 0.375000 0.510922
vt 0.137681 0.244527
vt 0.130049 0.244951
vt 0.380473 0.487319
vt 0.387924 0.487076
vt 0.387681 0.494527
vt 0.395147 0.500000
vt 0.375000 0.500000
vt 0.375000 0.500000
vt 0.380049 0.494951
vt 0.862076 0.237076
vt 0.869527 0.237319
vt 0.869951 0.244951
vt 0.619527 0.512681
vt 0.619951 0.505049
vt 0.612319 0.505473
vt 0.612319 0.494527
vt 0.619527 0.487319
vt 0.625000 0.489078
vt 0.625000 0.500000
vt 0.625000 0.500000
vt 0.619951 0.494951
vt 0.380473 0.762681
vt 0.380049 0.755049
vt 0.375000 0.760922
vt 0.137924 0.012924
vt 0.130473 0.012681
vt 0.130049 0.005049
vt 0.380473 0.737319
vt 0.387924 0.737076
vt 0.387681 0.744527
vt 0.395147 0.750000
vt 0.375000 0.750000
vt 0.375000 0.750000
vt 0.380049 0.744951
vt 0.862319 0.005473
vt 0.869951 0.005049
vt 0.619527 0.762681
vt 0.619951 0.755049
vt 0.612076 0.762924
vt 0.612319 0.755473
vt 0.612319 0.744527
vt 0.619527 0.737319
vt 0.625000 0.739078
vt 0.625000 0.750000
vt 0.625000 0.750000
vt 0.619951 0.744951
vn -0.007486 -0.999944 -0.007486
vn 0.007486 -0.999944 -0.007486
vn 0.007486 -0.999944 0.007486
vn -0.007486 -0.999944 0.007486
vn 0.007486 -0.007486 0.999944
vn 0.007486 0.007486 0.999944
vn -0.007486 0.007486 0.999944
vn -0.007486 -0.007486 0.999944
vn -0.999944 0.007486 0.007486
vn -0.999944 0.007486 -0.007486
vn -0.999944 -0.007486 -0.007486
vn -0.999944 -0.007486 0.007486
vn 0.999944 -0.007486 -0.007486
vn 0.999944 0.007486 -0.007486
vn 0.999944 0.007486 0.007486
vn 0.999944 -0.007486 0.007486
vn 0.007486 0.999944 0.007486
vn 0.007486 0.999944 -0.007486
vn -0.007486 0.999944 -0.007486
vn -0.007486 0.999944 0.007486
vn 0.007486 0.007486 -0.999944
vn 0.007486 -0.007486 -0.999944
vn -0.007486 -0.007486 -0.999944
vn -0.007486 0.007486 -0.999944
vn -0.499448 -0.866323 0.006028
vn -0.499448 -0.866323 -0.006028
vn -0.866323 -0.499448 0.006028
vn -0.866323 -0.499448 -0.006028
vn -0.006028 -0.499448 0.866323
vn 0.006028 -0.499448 0.866323
vn -0.006028 -0.866323 0.499448
vn 0.006028 -0.866323 0.499448
vn -0.866323 -0.006028 0.499448
vn -0.866323 0.006028 0.499448
vn -0.499448 -0.006028 0.866323
vn -0.499448 0.006028 0.866323
vn 0.866323 -0.499448 0.006028
vn 0.866323 -0.499448 -0.006028
vn 0.499448 -0.866323 0.006028
vn 0.499448 -0.866323 -0.006028
vn 0.499448 -0.006028 0.866323
vn 0.499448 0.006028 0.866323
vn 0.866323 -0.006028 0.499448
vn 0.866323 0.006028 0.499448
vn -0.866323 0.499448 0.006028
vn -0.866323 0.499448 -0.006028
vn -0.499448 0.866323 0.006028
vn -0.499448 0.866323 -0.006028
vn -0.006028 0.866323 0.499448
vn 0.006028 0.866323 0.499448
vn -0.006028 0.499448 0.866323
vn 0.006028 0.499448 0.866323
vn 0.499448 0.866323 0.006028
vn 0.499448 0.866323 -0.006028
vn 0.866323 0.499448 0.006028
vn 0.866323 0.499448 -0.006028
vn -0.866323 0.006028 -0.499448
vn -0.866323 -0.006028 -0.499448
vn -0.499448 0.006028 -0.866323
vn -0.499448 -0.006028 -0.866323
vn -0.006028 0.499448 -0.866323
vn 0.006028 0.499448 -0.866323
vn -0.006028 0.866323 -0.499448
vn 0.006028 0.866323 -0.499448
vn 0.499448 0.006028 -0.866323
vn 0.499448 -0.006028 -0.866323
vn 0.866323 0.006028 -0.499448
vn 0.866323 -0.006028 -0.499448
vn -0.006028 -0.866323 -0.499448
vn 0.006028 -0.866323 -0.499448
vn -0.006028 -0.499448 -0.866323
vn 0.006028 -0.499448 -0.866323
vn -0.808361 -0.416265 0.416264
vn -0.416264 -0.808362 0.416264
vn -0.416264 -0.416264 0.808362
vn 0.416265 -0.808361 0.416264
vn 0.808361 -0.416264 0.416265
vn 0.416263 -0.416265 0.808362
vn -0.416265 0.808361 0.416264
vn -0.808361 0.416264 0.416265
vn -0.416263 0.416265 0.808362
vn 0.808361 0.416265 0.416264
vn 0.416264 0.808362 0.416264
vn 0.416264 0.416264 0.808362
vn -0.416265 0.416264 -0.808361
vn -0.808362 0.416264 -0.416264
vn -0.416264 0.808362 -0.416264
vn 0.808361 0.416264 -0.416265
vn 0.416264 0.416265 -0.808362
vn 0.416265 0.808362 -0.416263
vn -0.416265 -0.808361 -0.416264
vn -0.808361 -0.416264 -0.416265
vn -0.416263 -0.416265 -0.808362
vn 0.808361 -0.416265 -0.416264
vn 0.416264 -0.808362 -0.416264
vn 0.416264 -0.416264 -0.808362
s 1
g pCube112
usemtl initialShadingGroup
f 55/34/1 67/131/2 10/52/3 4/43/4
f 16/10/5 34/19/6 25/72/7 7/46/8
f 22/13/9 40/23/10 58/117/11 1/5/12
f 64/32/13 46/102/14 28/78/15 13/57/16
f 31/20/17 52/29/18 43/96/19 19/16/20
f 49/30/21 70/37/22 61/121/23 37/26/24
f 4/43/4 3/41/25 56/114/26 55/34/1
f 3/41/25 2/1/27 57/116/28 56/114/26
f 2/38/27 1/5/12 58/117/11 57/2/28
f 7/46/8 6/45/29 17/61/30 16/10/5
f 6/45/29 5/3/31 18/62/32 17/61/30
f 5/44/31 4/43/4 10/52/3 18/4/32
f 1/5/12 9/6/33 23/69/34 22/13/9
f 9/48/33 8/47/35 24/71/36 23/7/34
f 8/47/35 7/46/8 25/72/7 24/71/36
f 13/57/16 12/8/37 65/127/38 64/32/13
f 12/55/37 11/53/39 66/129/40 65/9/38
f 11/53/39 10/52/3 67/131/2 66/129/40
f 16/10/5 15/60/41 35/85/42 34/19/6
f 15/60/41 14/11/43 36/86/44 35/85/42
f 14/58/43 13/57/16 28/78/15 36/12/44
f 22/13/9 21/14/45 41/93/46 40/23/10
f 21/68/45 20/66/47 42/95/48 41/15/46
f 20/66/47 19/16/20 43/96/19 42/95/48
f 19/16/20 27/17/49 32/83/50 31/20/17
f 27/74/49 26/73/51 33/84/52 32/18/50
f 26/73/51 25/72/7 34/19/6 33/84/52
f 31/20/17 30/81/53 53/109/54 52/29/18
f 30/81/53 29/21/55 54/110/56 53/109/54
f 29/79/55 28/78/15 46/102/14 54/22/56
f 40/23/10 39/24/57 59/118/58 58/117/11
f 39/92/57 38/90/59 60/120/60 59/25/58
f 38/90/59 37/26/24 61/121/23 60/120/60
f 37/26/24 45/27/61 50/107/62 49/30/21
f 45/98/61 44/97/63 51/108/64 50/28/62
f 44/97/63 43/96/19 52/29/18 51/108/64
f 49/30/21 48/105/65 71/134/66 70/37/22
f 48/105/65 47/31/67 72/135/68 71/134/66
f 47/103/67 46/102/14 64/32/13 72/33/68
f 55/34/1 63/35/69 68/132/70 67/131/2
f 63/123/69 62/122/71 69/133/72 68/36/70
f 62/122/71 61/121/23 70/37/22 69/133/72
f 9/6/33 1/5/12 2/38/27 73/39/73
f 73/40/73 2/1/27 3/41/25 74/42/74
f 3/41/25 4/43/4 5/44/31 74/42/74
f 74/50/74 5/3/31 6/45/29 75/51/75
f 6/45/29 7/46/8 8/47/35 75/51/75
f 75/51/75 8/47/35 9/48/33 73/49/73
f 73/49/73 74/50/74 75/51/75
f 18/4/32 10/52/3 11/53/39 76/54/76
f 76/54/76 11/53/39 12/55/37 77/56/77
f 12/8/37 13/57/16 14/58/43 77/59/77
f 77/64/77 14/11/43 15/60/41 78/65/78
f 15/60/41 16/10/5 17/61/30 78/65/78
f 78/65/78 17/61/30 18/62/32 76/63/76
f 76/63/76 77/64/77 78/65/78
f 27/17/49 19/16/20 20/66/47 79/67/79
f 79/67/79 20/66/47 21/68/45 80/76/80
f 21/14/45 22/13/9 23/69/34 80/70/80
f 80/76/80 23/7/34 24/71/36 81/77/81
f 24/71/36 25/72/7 26/73/51 81/77/81
f 81/77/81 26/73/51 27/74/49 79/75/79
f 79/75/79 80/76/80 81/77/81
f 36/12/44 28/78/15 29/79/55 82/80/82
f 82/87/82 29/21/55 30/81/53 83/82/83
f 30/81/53 31/20/17 32/83/50 83/82/83
f 83/88/83 32/18/50 33/84/52 84/89/84
f 33/84/52 34/19/6 35/85/42 84/89/84
f 84/89/84 35/85/42 36/86/44 82/87/82
f 82/87/82 83/88/83 84/89/84
f 45/27/61 37/26/24 38/90/59 85/91/85
f 85/91/85 38/90/59 39/92/57 86/100/86
f 39/24/57 40/23/10 41/93/46 86/94/86
f 86/100/86 41/15/46 42/95/48 87/101/87
f 42/95/48 43/96/19 44/97/63 87/101/87
f 87/101/87 44/97/63 45/98/61 85/99/85
f 85/99/85 86/100/86 87/101/87
f 54/22/56 46/102/14 47/103/67 88/104/88
f 88/111/88 47/31/67 48/105/65 89/106/89
f 48/105/65 49/30/21 50/107/62 89/106/89
f 89/112/89 50/28/62 51/108/64 90/113/90
f 51/108/64 52/29/18 53/109/54 90/113/90
f 90/113/90 53/109/54 54/110/56 88/111/88
f 88/111/88 89/112/89 90/113/90
f 63/35/69 55/34/1 56/114/26 91/115/91
f 91/115/91 56/114/26 57/116/28 92/125/92
f 57/2/28 58/117/11 59/118/58 92/119/92
f 92/125/92 59/25/58 60/120/60 93/126/93
f 60/120/60 61/121/23 62/122/71 93/126/93
f 93/126/93 62/122/71 63/123/69 91/124/91
f 91/124/91 92/125/92 93/126/93
f 72/33/68 64/32/13 65/127/38 94/128/94
f 94/136/94 65/9/38 66/129/40 95/130/95
f 66/129/40 67/131/2 68/132/70 95/130/95
f 95/137/95 68/36/70 69/133/72 96/138/96
f 69/133/72 70/37/22 71/134/66 96/138/96
f 96/138/96 71/134/66 72/135/68 94/136/94
f 94/136/94 95/137/95 96/138/96
